<?xml version="1.0" encoding="utf-8"?>
<!-- Svg Vector Icons : http://www.onlinewebfonts.com/icon -->
<!DOCTYPE svg PUBLIC "-//W3C//DTD SVG 1.1//EN" "http://www.w3.org/Graphics/SVG/1.1/DTD/svg11.dtd">
<svg version="1.1" xmlns="http://www.w3.org/2000/svg" xmlns:xlink="http://www.w3.org/1999/xlink" x="0px" y="0px" viewBox="0 0 256 256" enable-background="new 0 0 256 256" xml:space="preserve">
<metadata> Svg Vector Icons : http://www.onlinewebfonts.com/icon </metadata>
<g><g><path fill="#000000" d="M44.5,211.5c-46-46-46-120.9,0-167c46-46,120.9-46,167,0s46,120.9,0,167C165.4,257.5,90.5,257.5,44.5,211.5z M204.8,51.2C162.4,8.9,93.6,8.9,51.2,51.2c-42.3,42.3-42.3,111.2,0,153.5c42.3,42.3,111.2,42.3,153.5,0C247.1,162.4,247.1,93.6,204.8,51.2z"/><path fill="#000000" d="M158.1,89.8l8.1,8.1l-68.3,68.3l-8.1-8.1L158.1,89.8L158.1,89.8z"/><path fill="#000000" d="M97.9,89.8l68.3,68.3l-8.1,8.1L89.8,97.9L97.9,89.8z"/></g></g>
</svg>